<?xml version="1.0" encoding="utf-8"?>
<!-- Svg Vector Icons : http://www.onlinewebfonts.com/icon -->
<!DOCTYPE svg PUBLIC "-//W3C//DTD SVG 1.1//EN" "http://www.w3.org/Graphics/SVG/1.1/DTD/svg11.dtd">
<svg version="1.1" xmlns="http://www.w3.org/2000/svg" xmlns:xlink="http://www.w3.org/1999/xlink" x="0px" y="0px" viewBox="0 0 1000 1000" enable-background="new 0 0 1000 1000" xml:space="preserve">
<metadata> Svg Vector Icons : http://www.onlinewebfonts.com/icon </metadata>
<g><g transform="translate(0.000000,511.000000) scale(0.100000,-0.100000)"><path d="M687.6,4339.7c-91.6-39.8-163.3-137.4-187.2-255C450.6,3837.8,100,1834,100,1796.1c0-65.7,53.8-149.4,113.5-175.3c41.8-15.9,631.4-21.9,2280.7-17.9l2226.9,6l49.8,51.8l51.8,51.8l-2,1238.9c-2,1334.6,0,1312.6-103.6,1384.4c-39.8,27.9-260.9,31.9-2007.8,31.9C1123.8,4365.6,735.4,4361.6,687.6,4339.7z M4392.5,4021c25.9-25.9,55.8-81.7,67.7-123.5c31.9-113.5,29.9-1820.6-2-1890.3c-51.8-113.5,27.9-109.6-2005.8-109.6H582l-61.7,51.8c-51.8,41.8-61.8,65.7-61.8,135.4c0,145.4,296.8,1768.8,334.6,1834.5c19.9,31.9,65.7,79.7,103.6,103.6l65.7,45.8h1691.1h1691.1L4392.5,4021z"/><path d="M3388.6,3919.4c-119.5-101.6-129.5-278.9-19.9-386.4c101.6-101.6,241-105.6,354.5-12c103.6,87.6,121.5,227.1,45.8,344.6C3695.3,3977.2,3494.1,4007.1,3388.6,3919.4z"/><path d="M2681.5,3909.5c-241-75.7-239-420.3,2-500c155.4-49.8,320.7,59.8,338.6,225.1C3040,3817.9,2858.7,3965.3,2681.5,3909.5z"/><path d="M1733.3,3813.9c-117.5-57.8-151.4-181.3-79.7-296.8c103.6-171.3,378.5-89.6,378.5,113.5c0,89.6-45.8,155.4-131.5,191.2C1817,3857.7,1817,3857.7,1733.3,3813.9z"/><path d="M992.4,3652.5c-173.3-155.4,8-430.2,223.1-340.6c77.7,31.9,119.5,101.6,119.5,199.2C1335,3692.4,1131.8,3776,992.4,3652.5z"/><path d="M3882.6,3353.8c-161.3-161.3,35.9-436.2,239-332.6c79.7,41.8,129.5,137.4,113.5,221.1C4203.3,3407.5,4002.1,3471.3,3882.6,3353.8z"/><path d="M2388.7,3210.3c-79.7-85.6-79.7-191.2,0-280.9c49.8-55.8,71.7-65.7,147.4-65.7c109.6,0,185.2,61.7,205.2,163.3c25.9,139.4-69.7,245-221.1,245C2464.4,3272.1,2432.5,3258.1,2388.7,3210.3z"/><path d="M1717.4,3224.3c-121.5-65.7-165.3-272.9-81.7-378.5c117.5-149.4,340.6-143.4,436.2,12c65.7,103.6,45.8,243-47.8,328.7c-59.8,55.8-85.7,65.7-165.3,65.7C1805,3250.2,1743.3,3240.2,1717.4,3224.3z"/><path d="M3237.2,3224.3c-211.1-93.6-225.1-370.5-21.9-470.1c99.6-47.8,129.5-49.8,221.1-12c195.2,81.7,195.2,400.4,0,482C3352.7,3258.1,3314.9,3258.1,3237.2,3224.3z"/><path d="M1024.2,3045c-93.6-41.8-147.4-121.5-147.4-225.1c0-262.9,276.9-372.5,456.1-179.3c103.6,113.5,61.8,320.7-79.7,396.4C1173.6,3078.9,1109.9,3080.9,1024.2,3045z"/><path d="M1912.6,2668.6c-71.7-35.9-139.4-147.4-139.4-231.1c0-237,292.8-348.6,452.2-173.3c55.8,61.8,65.7,85.7,65.7,173.3c0,91.6-8,109.6-77.7,179.3c-65.7,67.7-89.6,77.7-163.3,77.7C2002.2,2694.4,1940.5,2682.5,1912.6,2668.6z"/><path d="M3601.7,2563c-71.7-37.8-95.6-85.6-95.6-187.2c0-177.3,199.2-264.9,336.6-147.4C4033.9,2389.7,3822.8,2684.5,3601.7,2563z"/><path d="M2741.2,2493.3c-111.5-87.6-143.4-235-71.7-350.6c137.4-225.1,478-127.5,478,139.4c0,87.7-8,105.6-77.7,175.3c-69.7,69.7-87.6,77.7-175.3,77.7C2822.9,2535.1,2779.1,2523.1,2741.2,2493.3z"/><path d="M1058.1,2407.6c-135.5-75.7-131.5-302.8,8-366.5c93.6-43.8,167.3-29.9,241,43.8c51.8,51.8,67.7,83.7,67.7,141.4c0,57.8-15.9,89.6-67.7,141.4C1233.4,2441.5,1145.7,2455.4,1058.1,2407.6z"/><path d="M5270.9,4325.8c-29.9-23.9-63.7-63.7-71.7-89.6c-10-25.9-19.9-603.5-19.9-1284.8l-2-1238.9l51.8-51.8l49.8-51.8l2226.9-6c1649.3-4,2238.9,2,2280.7,17.9c59.8,25.9,113.5,109.6,113.5,175.3c0,21.9-93.6,567.7-209.2,1211.1c-217.1,1225-215.1,1219-336.6,1308.7c-53.8,41.8-69.7,41.8-2041.7,47.8l-1987.9,4L5270.9,4325.8z M9103.3,4023c37.9-23.9,83.7-71.7,103.6-103.6c35.8-63.7,334.6-1689.1,334.6-1828.5c0-57.8-13.9-91.6-57.8-135.5l-57.8-57.8H7549.6c-2035.7,0-1956-4-2007.8,109.6c-31.9,69.7-33.9,1776.8-2,1890.3c12,41.8,41.8,97.6,67.7,123.5l47.8,47.8h1691.1h1691.1L9103.3,4023z"/><path d="M8595.3,3825.8c-45.8-119.5-57.8-187.2-65.7-376.5c-8-227.1,13.9-346.6,57.8-302.8c41.8,41.8,101.6,268.9,111.6,426.3c11.9,179.3-6,396.4-33.9,396.4C8657.1,3969.2,8625.2,3903.5,8595.3,3825.8z"/><path d="M7621.3,3807.9c101.6-195.2,502-545.8,557.7-492c45.8,47.8-255,402.4-434.2,507.9C7563.5,3933.4,7555.6,3931.4,7621.3,3807.9z"/><path d="M6203.1,3543c-155.4-75.7-316.7-201.2-416.3-328.7c-127.5-159.4-73.7-185.2,127.5-65.7c69.7,39.8,173.3,119.5,229.1,173.3c105.6,99.6,225.1,260.9,207.1,278.9C6346.5,3606.7,6278.8,3580.8,6203.1,3543z"/><path d="M6633.3,3594.8c0-45.8,249-221.1,408.3-288.8c109.6-43.8,227.1-73.7,298.8-73.7h59.8l-99.6,89.6c-117.5,103.6-314.7,213.1-466.1,256.9C6717,3612.7,6633.3,3620.7,6633.3,3594.8z"/><path d="M7631.2,3250.2c105.6-195.2,410.3-476.1,519.9-476.1c47.8,0,25.9,51.8-91.6,211.1c-105.6,143.4-247,262.9-396.4,338.6l-97.6,49.8L7631.2,3250.2z"/><path d="M8906,3080.9c-133.4-35.8-400.4-173.3-460.1-237c-41.8-45.8-43.8-49.8-10-61.7c97.6-37.8,521.9,125.5,677.2,258.9l79.7,69.7h-89.6C9053.5,3110.7,8965.8,3096.8,8906,3080.9z"/><path d="M6225,3023.1c-53.8-15.9-105.6-27.9-113.5-29.9c-10,0-15.9-8-15.9-17.9c0-8,51.8-31.9,115.5-49.8c217.1-59.8,691.2-27.9,691.2,47.8C6902.2,3045,6430.2,3078.9,6225,3023.1z"/><path d="M7364.4,2919.5c-29.9-27.9-12-342.6,23.9-490c41.8-161.3,109.6-312.7,141.4-312.7c61.7,0,45.8,326.7-29.9,547.8C7446,2823.9,7384.3,2941.4,7364.4,2919.5z"/><path d="M7007.8,2792c-103.6-175.3-183.3-513.9-159.3-675.2c12-77.7,33.9-75.7,83.7,6c99.6,159.4,181.3,565.7,143.4,699.1l-15.9,59.8L7007.8,2792z"/><path d="M5816.7,2612.8c63.8-169.3,161.3-312.7,304.8-448.2c73.7-69.7,143.4-127.5,153.4-127.5c61.7,0-17.9,191.2-163.3,388.4c-75.7,103.6-282.9,288.8-320.7,288.8C5782.8,2714.4,5794.8,2668.6,5816.7,2612.8z"/><path d="M8625.2,2662.6c0-45.8,163.3-262.9,278.9-374.5c135.4-127.5,290.8-227.1,314.7-201.2c25.9,25.9-89.6,203.2-215.1,330.7C8862.2,2563,8625.2,2714.4,8625.2,2662.6z"/><path d="M7898.2,2246.3c-167.3-43.8-173.3-61.7-37.9-101.6c215.1-65.7,693.2-35.8,719.1,45.8C8601.3,2256.2,8105.3,2298.1,7898.2,2246.3z"/><path d="M183.7,1200.5C335,772.3,582,477.5,864.9,393.8c149.4-45.8,3029.6-43.8,3161.1,0c235,79.7,517.9,418.3,713.1,850.5l55.8,125.5H2460.4H123.9L183.7,1200.5z"/><path d="M5272.9,1220.5c165.3-362.5,432.2-699.2,633.4-796.7l99.6-49.8h1553.7h1553.7l115.5,53.8c233,109.6,452.2,394.4,579.6,754.9l67.7,187.2H7539.6H5205.2L5272.9,1220.5z"/><path d="M657.7-191.8c-37.8-19.9-87.6-65.7-107.6-101.6c-27.9-45.8-99.6-408.3-245-1223C193.6-2151.8,100-2697.5,100-2727.4c0-33.9,23.9-81.7,57.8-119.5l57.8-65.7l2199-6c1543.7-4,2218.9,0,2272.7,15.9c143.4,41.8,135.5-23.9,133.5,1344.5c-2,1308.7-2,1332.6-95.6,1382.4c-29.9,15.9-641.4,21.9-2019.8,21.9C813.1-153.9,723.5-155.9,657.7-191.8z M4396.5-496.5c81.7-91.6,85.6-145.4,85.6-1083.6v-904.3l-57.8-63.8l-57.8-65.7l-1870.4-6c-1376.4-4-1882.3,2-1924.1,17.9c-75.7,31.9-113.5,91.6-113.5,183.3c0,67.7,282.9,1705.1,310.7,1790.7c6,17.9,45.8,65.7,87.6,103.6l79.7,71.7h1709h1711L4396.5-496.5z"/><path d="M2147.6-653.9c-29.9-8-71.7-31.9-93.6-51.8c-41.8-39.8-41.8-39.8,87.6-61.7c71.7-13.9,155.4-29.9,189.2-35.8c49.8-12,59.8-6,59.8,25.9C2390.6-695.7,2251.2-624,2147.6-653.9z"/><path d="M1673.6-934.7c-115.5-65.7-344.6-187.2-509.9-266.9c-181.3-85.7-306.7-159.4-314.7-181.3c-10-25.9,2-51.8,47.8-89.6c121.5-111.5,368.5-61.7,639.4,127.5c81.7,55.8,191.2,133.5,245,169.3l95.6,65.7l4,149.4c0,81.7,2,149.4,2,149.4S1789.1-867,1673.6-934.7z"/><path d="M1992.3-972.6c0-125.5,41.8-199.2,145.4-258.9c71.7-39.8,121.5-45.8,430.2-59.8c290.8-12,382.4-25.9,539.8-69.7c282.8-79.7,324.7-81.7,376.5-17.9c59.8,77.7,51.8,123.5-33.9,209.1c-91.6,91.6-167.3,113.5-452.2,131.5c-119.5,6-288.8,29.9-374.5,49.8C2394.6-930.8,2093.9-871,2040.1-871C1996.3-871,1992.3-879,1992.3-972.6z"/><path d="M4002.1-1380.9c-37.8-27.9-133.4-87.6-211.1-133.5c-143.4-79.7-157.4-111.6-51.8-113.5c23.9,0,75.7-31.9,113.5-69.7l69.7-69.7l175.3,91.6c195.2,101.6,225.1,129.5,225.1,209.1C4322.8-1337.1,4129.6-1285.3,4002.1-1380.9z"/><path d="M1574-1450.6c-59.8-43.8-111.5-87.7-115.5-95.6c-4-10,59.8-93.6,141.4-185.2c81.7-93.6,237-282.8,348.6-420.3c111.5-137.4,221.1-254.9,243-262.9c61.7-19.9,117.5,6,149.4,69.7c53.8,103.6,37.8,147.4-101.6,302.8c-71.7,79.7-209.1,243-304.8,362.5c-93.6,119.5-189.2,239-211.1,262.9l-39.8,45.8L1574-1450.6z"/><path d="M2364.8-1422.8c-19.9-19.9-15.9-89.6,10-201.2c25.9-117.5,43.8-127.5,278.9-173.3c482-91.6,591.6-117.5,788.8-179.3c276.9-89.6,336.6-89.6,370.5-6c27.9,63.8,25.9,89.6-12,169.3c-27.9,55.8-23.9,53.8-404.3,147.4c-175.3,43.8-458.1,119.5-629.4,167.3C2458.4-1408.8,2388.7-1396.9,2364.8-1422.8z"/><path d="M1028.2-1872.9c-89.6-21.9-93.6-63.7-13.9-203.2l55.8-99.6l336.6,6c185.2,2,348.6,10,362.5,13.9c25.9,10,10,35.9-139.4,215.1c-43.8,51.8-55.8,53.8-286.8,69.7C1209.5-1862.9,1068.1-1865,1028.2-1872.9z"/><path d="M2271.1-1894.8c0-8,33.9-47.8,75.7-87.6c43.8-41.8,87.7-93.6,99.6-115.5c19.9-31.9,25.9-33.9,43.8-8c27.9,43.8,23.9,151.4-8,177.3C2452.4-1902.8,2271.1-1874.9,2271.1-1894.8z"/><path d="M2936.4-1994.4c-25.9-19.9-27.9-33.8-12-65.7c27.9-51.8,157.4-165.3,189.2-165.3c29.9,0,225.1,111.5,241,137.4c6,10-57.8,35.8-143.4,57.8C2978.3-1970.5,2972.3-1968.5,2936.4-1994.4z"/><path d="M5272.9-175.8c-89.6-51.8-91.6-83.7-93.6-1382.4c-2-1368.4-10-1302.7,133.5-1344.5c53.8-15.9,729-19.9,2272.7-15.9l2199,6l57.8,65.7c33.9,37.9,57.8,85.6,57.8,119.5c0,29.9-93.6,575.6-207.2,1213c-141.4,802.7-217.1,1177.2-243,1223c-19.9,33.9-69.7,79.7-107.6,99.6c-65.7,35.9-155.4,37.9-2051.6,37.9C5918.2-155.9,5296.8-161.9,5272.9-175.8z M9143.1-524.4c41.8-37.9,81.7-85.7,87.7-103.6c25.9-83.7,310.7-1727,310.7-1792.7c0-89.6-37.9-149.4-113.5-181.3c-41.8-15.9-547.8-21.9-1924.1-17.9l-1870.4,6l-57.7,65.7l-57.8,63.8v904.3c0,938.2,4,992,85.6,1083.6l39.8,43.8h1711h1709L9143.1-524.4z"/><path d="M7314.6-663.8c-97.6-67.7-139.4-241-103.6-420.3c19.9-97.6,39.8-131.4,121.5-211.1c53.8-51.8,97.6-113.5,97.6-133.5c0-19.9,10-43.8,19.9-49.8c11.9-6,19.9,6,19.9,29.9s43.8,87.6,97.6,143.4c133.4,137.4,169.3,282.8,119.5,486C7655.2-695.7,7575.5-632,7452-632C7400.2-632,7340.4-645.9,7314.6-663.8z"/><path d="M6318.6-693.7c-83.7-31.9-223.1-143.4-262.9-209.2c-21.9-33.9-39.8-95.6-39.8-137.4c0-59.7,15.9-89.6,77.7-151.4c93.6-93.6,175.3-101.6,316.7-29.9c175.3,89.6,282.9,239,282.9,392.4c0,29.9,15.9,73.7,37.9,99.6l35.9,47.8l-201.2,4C6456.1-675.8,6342.5-683.8,6318.6-693.7z"/><path d="M8521.6-737.5c-47.8-35.9-115.5-107.6-149.4-161.4c-57.8-83.6-65.7-113.5-65.7-225.1c0-69.7-10-145.4-21.9-169.3c-25.9-45.8-8-73.7,25.9-39.8c13.9,13.9,75.7,23.9,139.4,23.9s147.4,12,183.3,27.9c97.6,41.8,223.1,161.3,270.9,262.9c57.8,117.5,41.8,203.2-51.8,284.9C8754.7-645.9,8641.1-647.9,8521.6-737.5z"/><path d="M6621.4-1243.5c-79.7-15.9-151.4-115.5-161.3-219.1c-8-83.7-2-105.6,41.8-159.3c61.7-73.7,223.1-155.4,344.6-175.3c67.7-10,107.6-4,199.2,39.8c81.7,35.8,131.5,47.8,173.3,37.9l61.7-12l-53.8,51.8c-27.9,27.9-63.7,83.6-75.7,125.5c-41.8,123.5-99.6,187.2-227.1,247C6798.7-1249.5,6693.1-1227.6,6621.4-1243.5z"/><path d="M7975.9-1474.5c6-27.9-8-83.7-37.9-143.4c-59.8-121.5-61.7-233.1-10-374.5c75.7-201.2,215.1-288.8,364.5-225.1c105.6,43.8,157.4,137.4,145.4,256.9c-10,93.6-87.6,270.9-145.4,336.6c-17.9,19.9-71.7,49.8-123.5,67.7c-49.8,17.9-111.5,53.8-135.4,79.7C7977.8-1416.8,7959.9-1416.8,7975.9-1474.5z"/><path d="M7613.3-1695.6c-13.9-33.8-49.8-57.8-101.6-71.7c-111.5-29.9-191.2-103.6-252.9-233c-121.5-258.9-37.9-464.1,189.2-464.1c109.6,0,205.2,85.6,260.9,231c53.8,147.4,51.8,264.9-10,386.4c-33.9,67.7-45.8,115.5-37.9,149.4C7677.1-1633.9,7643.2-1631.9,7613.3-1695.6z"/><path d="M6185.2-1888.8c-77.7-41.8-129.5-57.8-161.3-49.8c-59.8,15.9-59.8-2,0-49.8c25.9-19.9,69.7-85.7,99.6-145.4c47.8-97.6,67.7-117.5,181.3-173.3c237.1-115.5,426.3-79.7,484,91.6c53.8,161.3-33.9,280.8-249,348.6C6366.4-1813.1,6320.6-1817.1,6185.2-1888.8z"/><path d="M147.8-3207.5c19.9-95.6,113.5-316.7,195.2-458.1c109.6-189.2,262.9-340.6,428.3-418.3l135.4-63.7h1543.7h1543.7l89.6,47.8c121.5,65.7,324.7,262.9,428.3,420.3c81.7,123.5,268.9,480,268.9,511.9c0,10-1045.7,15.9-2322.5,15.9H135.8L147.8-3207.5z"/><path d="M5219.1-3167.6c0-33.9,185.2-386.4,268.9-511.9c111.5-167.3,284.8-338.6,414.3-410.3l103.6-57.8h1543.7h1543.7l113.5,53.8c221.1,103.6,362.5,253,503.9,533.8c73.7,145.4,149.4,342.6,149.4,386.4c0,15.9-655.3,21.9-2320.5,21.9C6262.9-3151.7,5219.1-3159.7,5219.1-3167.6z"/></g></g>
</svg>